<?xml version="1.0" encoding="us-ascii" standalone="no"?><svg xmlns="http://www.w3.org/2000/svg" xmlns:xlink="http://www.w3.org/1999/xlink" contentStyleType="text/css" height="208px" preserveAspectRatio="none" style="width:220px;height:208px;background:#FFFFFF;" version="1.1" viewBox="0 0 220 208" width="220px" zoomAndPan="magnify"><defs/><g><ellipse cx="110" cy="20" fill="#222222" rx="10" ry="10" style="stroke:#222222;stroke-width:1.0;"/><rect fill="#F1F1F1" height="35.0938" rx="12.5" ry="12.5" style="stroke:#181818;stroke-width:0.5;" width="90" x="65" y="50"/><text fill="#000000" font-family="sans-serif" font-size="12" lengthAdjust="spacing" textLength="70" x="75" y="72.457">&#1055;&#1088;&#1080;&#1074;&#1077;&#1090; &#1084;&#1080;&#1088;!</text><rect fill="#F1F1F1" height="50.1875" rx="12.5" ry="12.5" style="stroke:#181818;stroke-width:0.5;" width="198" x="11" y="105.0938"/><text fill="#000000" font-family="sans-serif" font-size="12" lengthAdjust="spacing" textLength="164" x="21" y="127.5508">&#1069;&#1090;&#1072; &#1072;&#1082;&#1090;&#1080;&#1074;&#1085;&#1086;&#1089;&#1090;&#1100; &#1086;&#1087;&#1080;&#1089;&#1099;&#1074;&#1072;&#1077;&#1090;&#1089;&#1103;</text><text fill="#000000" font-family="sans-serif" font-size="12" lengthAdjust="spacing" textLength="178" x="21" y="142.6445">&#1085;&#1077;&#1089;&#1082;&#1086;&#1083;&#1100;&#1082;&#1080;&#1084;&#1080; &#1089;&#1090;&#1088;&#1086;&#1095;&#1082;&#1072;&#1084;&#1080; &#1090;&#1077;&#1082;&#1089;&#1090;&#1072;</text><ellipse cx="110" cy="186.2813" fill="none" rx="11" ry="11" style="stroke:#222222;stroke-width:1.0;"/><ellipse cx="110" cy="186.2813" fill="#222222" rx="6" ry="6" style="stroke:#222222;stroke-width:1.0;"/><line style="stroke:#181818;stroke-width:1.0;" x1="110" x2="110" y1="30" y2="50"/><polygon fill="#181818" points="106,40,110,50,114,40,110,44" style="stroke:#181818;stroke-width:1.0;"/><line style="stroke:#181818;stroke-width:1.0;" x1="110" x2="110" y1="85.0938" y2="105.0938"/><polygon fill="#181818" points="106,95.0938,110,105.0938,114,95.0938,110,99.0938" style="stroke:#181818;stroke-width:1.0;"/><line style="stroke:#181818;stroke-width:1.0;" x1="110" x2="110" y1="155.2813" y2="175.2813"/><polygon fill="#181818" points="106,165.2813,110,175.2813,114,165.2813,110,169.2813" style="stroke:#181818;stroke-width:1.0;"/><!--SRC=[9OtB3S8m44JlgM9f8wc62a292x1zuK0aIg22I5OaIrO2eOMPZfY5quxUpcSAvp5Or-F9Y8OLbTdmGcCy3SuNPXH3mIRXXZSE9cREXWCV6HFlmiMJqW_hPAbCsFJVEUisBxHVAYfz4of_b55Ld7n3QrEuNEqB]--></g></svg>